<svg width="60" height="60" viewBox="0 0 477 477" fill="none" xmlns="http://www.w3.org/2000/svg">
<path d="M39 135.386L39 340.614C39 370.651 63.3648 395 93.4203 395C123.476 395 147.841 370.651 147.841 340.614V135.386C147.841 105.349 123.476 81 93.4203 81C63.3648 81 39 105.349 39 135.386Z" fill="#1D4ED8"/>
<path d="M184 218.386V340.278C184 370.314 208.365 394.663 238.42 394.663C268.476 394.663 292.841 370.314 292.841 340.278V218.386C292.841 188.349 268.476 164 238.42 164C208.365 164 184 188.349 184 218.386Z" fill="#2563EB"/>
<path d="M329 331.386V340.621C329 370.657 353.365 395.007 383.42 395.007C413.476 395.007 437.841 370.657 437.841 340.621V331.386C437.841 301.349 413.476 277 383.42 277C353.365 277 329 301.349 329 331.386Z" fill="#3B82F6"/>
</svg>
